<svg width="201" height="317" viewBox="0 0 201 317" fill="none" xmlns="http://www.w3.org/2000/svg">
<g clip-path="url(#clip0_1_617)">
<path fill-rule="evenodd" clip-rule="evenodd" d="M50 48.9198C50 43.5161 54.477 39.1358 60 39.1358C65.523 39.1358 70 43.5161 70 48.9198C70 54.3234 65.523 58.7037 60 58.7037C60 64.1074 55.523 68.4877 50 68.4877C44.477 68.4877 40 64.1074 40 58.7037C40 53.3 44.477 48.9198 50 48.9198ZM10 9.78395C10 4.38028 14.477 0 20 0C25.523 0 30 4.38028 30 9.78395C30 15.1876 25.523 19.5679 20 19.5679C20 24.9716 15.523 29.3519 10 29.3519C4.477 29.3519 0 24.9716 0 19.5679C0 14.1642 4.477 9.78395 10 9.78395ZM20 17.6111C24.418 17.6111 28 14.1065 28 9.78395C28 5.4614 24.418 1.95679 20 1.95679C15.582 1.95679 12 5.4614 12 9.78395C12 14.1065 15.582 17.6111 20 17.6111ZM60 56.7469C64.418 56.7469 68 53.2423 68 48.9198C68 44.5972 64.418 41.0926 60 41.0926C55.582 41.0926 52 44.5972 52 48.9198C52 53.2423 55.582 56.7469 60 56.7469Z" fill="black"/>
<path fill-rule="evenodd" clip-rule="evenodd" d="M132 48.9198C132 43.5161 136.477 39.1358 142 39.1358C147.523 39.1358 152 43.5161 152 48.9198C152 54.3234 147.523 58.7037 142 58.7037C142 64.1074 137.523 68.4877 132 68.4877C126.477 68.4877 122 64.1074 122 58.7037C122 53.3 126.477 48.9198 132 48.9198ZM92 9.78395C92 4.38028 96.477 0 102 0C107.523 0 112 4.38028 112 9.78395C112 15.1876 107.523 19.5679 102 19.5679C102 24.9716 97.523 29.3519 92 29.3519C86.477 29.3519 82 24.9716 82 19.5679C82 14.1642 86.477 9.78395 92 9.78395ZM102 17.6111C106.418 17.6111 110 14.1065 110 9.78395C110 5.4614 106.418 1.95679 102 1.95679C97.582 1.95679 94 5.4614 94 9.78395C94 14.1065 97.582 17.6111 102 17.6111ZM142 56.7469C146.418 56.7469 150 53.2423 150 48.9198C150 44.5972 146.418 41.0926 142 41.0926C137.582 41.0926 134 44.5972 134 48.9198C134 53.2423 137.582 56.7469 142 56.7469Z" fill="black"/>
<path fill-rule="evenodd" clip-rule="evenodd" d="M214 48.9198C214 43.5161 218.477 39.1358 224 39.1358C229.523 39.1358 234 43.5161 234 48.9198C234 54.3234 229.523 58.7037 224 58.7037C224 64.1074 219.523 68.4877 214 68.4877C208.477 68.4877 204 64.1074 204 58.7037C204 53.3 208.477 48.9198 214 48.9198ZM174 9.78395C174 4.38028 178.477 0 184 0C189.523 0 194 4.38028 194 9.78395C194 15.1876 189.523 19.5679 184 19.5679C184 24.9716 179.523 29.3519 174 29.3519C168.477 29.3519 164 24.9716 164 19.5679C164 14.1642 168.477 9.78395 174 9.78395ZM184 17.6111C188.418 17.6111 192 14.1065 192 9.78395C192 5.4614 188.418 1.95679 184 1.95679C179.582 1.95679 176 5.4614 176 9.78395C176 14.1065 179.582 17.6111 184 17.6111ZM224 56.7469C228.418 56.7469 232 53.2423 232 48.9198C232 44.5972 228.418 41.0926 224 41.0926C219.582 41.0926 216 44.5972 216 48.9198C216 53.2423 219.582 56.7469 224 56.7469Z" fill="black"/>
<path fill-rule="evenodd" clip-rule="evenodd" d="M50 129.148C50 123.745 54.477 119.364 60 119.364C65.523 119.364 70 123.745 70 129.148C70 134.552 65.523 138.932 60 138.932C60 144.336 55.523 148.716 50 148.716C44.477 148.716 40 144.336 40 138.932C40 133.529 44.477 129.148 50 129.148ZM10 90.0125C10 84.6088 14.477 80.2285 20 80.2285C25.523 80.2285 30 84.6088 30 90.0125C30 95.4161 25.523 99.7964 20 99.7964C20 105.2 15.523 109.58 10 109.58C4.477 109.58 0 105.2 0 99.7964C0 94.3927 4.477 90.0125 10 90.0125ZM20 97.8396C24.418 97.8396 28 94.335 28 90.0125C28 85.6899 24.418 82.1853 20 82.1853C15.582 82.1853 12 85.6899 12 90.0125C12 94.335 15.582 97.8396 20 97.8396ZM60 136.975C64.418 136.975 68 133.471 68 129.148C68 124.826 64.418 121.321 60 121.321C55.582 121.321 52 124.826 52 129.148C52 133.471 55.582 136.975 60 136.975Z" fill="black"/>
<path fill-rule="evenodd" clip-rule="evenodd" d="M132 129.148C132 123.745 136.477 119.364 142 119.364C147.523 119.364 152 123.745 152 129.148C152 134.552 147.523 138.932 142 138.932C142 144.336 137.523 148.716 132 148.716C126.477 148.716 122 144.336 122 138.932C122 133.529 126.477 129.148 132 129.148ZM92 90.0125C92 84.6088 96.477 80.2285 102 80.2285C107.523 80.2285 112 84.6088 112 90.0125C112 95.4161 107.523 99.7964 102 99.7964C102 105.2 97.523 109.58 92 109.58C86.477 109.58 82 105.2 82 99.7964C82 94.3927 86.477 90.0125 92 90.0125ZM102 97.8396C106.418 97.8396 110 94.335 110 90.0125C110 85.6899 106.418 82.1853 102 82.1853C97.582 82.1853 94 85.6899 94 90.0125C94 94.335 97.582 97.8396 102 97.8396ZM142 136.975C146.418 136.975 150 133.471 150 129.148C150 124.826 146.418 121.321 142 121.321C137.582 121.321 134 124.826 134 129.148C134 133.471 137.582 136.975 142 136.975Z" fill="black"/>
<path fill-rule="evenodd" clip-rule="evenodd" d="M214 129.148C214 123.745 218.477 119.364 224 119.364C229.523 119.364 234 123.745 234 129.148C234 134.552 229.523 138.932 224 138.932C224 144.336 219.523 148.716 214 148.716C208.477 148.716 204 144.336 204 138.932C204 133.529 208.477 129.148 214 129.148ZM174 90.0125C174 84.6088 178.477 80.2285 184 80.2285C189.523 80.2285 194 84.6088 194 90.0125C194 95.4161 189.523 99.7964 184 99.7964C184 105.2 179.523 109.58 174 109.58C168.477 109.58 164 105.2 164 99.7964C164 94.3927 168.477 90.0125 174 90.0125ZM184 97.8396C188.418 97.8396 192 94.335 192 90.0125C192 85.6899 188.418 82.1853 184 82.1853C179.582 82.1853 176 85.6899 176 90.0125C176 94.335 179.582 97.8396 184 97.8396ZM224 136.975C228.418 136.975 232 133.471 232 129.148C232 124.826 228.418 121.321 224 121.321C219.582 121.321 216 124.826 216 129.148C216 133.471 219.582 136.975 224 136.975Z" fill="black"/>
<path fill-rule="evenodd" clip-rule="evenodd" d="M50 209.377C50 203.973 54.477 199.593 60 199.593C65.523 199.593 70 203.973 70 209.377C70 214.78 65.523 219.16 60 219.16C60 224.564 55.523 228.944 50 228.944C44.477 228.944 40 224.564 40 219.16C40 213.757 44.477 209.377 50 209.377ZM10 170.241C10 164.837 14.477 160.457 20 160.457C25.523 160.457 30 164.837 30 170.241C30 175.644 25.523 180.025 20 180.025C20 185.428 15.523 189.809 10 189.809C4.477 189.809 0 185.428 0 180.025C0 174.621 4.477 170.241 10 170.241ZM20 178.068C24.418 178.068 28 174.563 28 170.241C28 165.918 24.418 162.414 20 162.414C15.582 162.414 12 165.918 12 170.241C12 174.563 15.582 178.068 20 178.068ZM60 217.204C64.418 217.204 68 213.699 68 209.377C68 205.054 64.418 201.549 60 201.549C55.582 201.549 52 205.054 52 209.377C52 213.699 55.582 217.204 60 217.204Z" fill="black"/>
<path fill-rule="evenodd" clip-rule="evenodd" d="M132 209.377C132 203.973 136.477 199.593 142 199.593C147.523 199.593 152 203.973 152 209.377C152 214.78 147.523 219.16 142 219.16C142 224.564 137.523 228.944 132 228.944C126.477 228.944 122 224.564 122 219.16C122 213.757 126.477 209.377 132 209.377ZM92 170.241C92 164.837 96.477 160.457 102 160.457C107.523 160.457 112 164.837 112 170.241C112 175.644 107.523 180.025 102 180.025C102 185.428 97.523 189.809 92 189.809C86.477 189.809 82 185.428 82 180.025C82 174.621 86.477 170.241 92 170.241ZM102 178.068C106.418 178.068 110 174.563 110 170.241C110 165.918 106.418 162.414 102 162.414C97.582 162.414 94 165.918 94 170.241C94 174.563 97.582 178.068 102 178.068ZM142 217.204C146.418 217.204 150 213.699 150 209.377C150 205.054 146.418 201.549 142 201.549C137.582 201.549 134 205.054 134 209.377C134 213.699 137.582 217.204 142 217.204Z" fill="black"/>
<path fill-rule="evenodd" clip-rule="evenodd" d="M214 209.377C214 203.973 218.477 199.593 224 199.593C229.523 199.593 234 203.973 234 209.377C234 214.78 229.523 219.16 224 219.16C224 224.564 219.523 228.944 214 228.944C208.477 228.944 204 224.564 204 219.16C204 213.757 208.477 209.377 214 209.377ZM174 170.241C174 164.837 178.477 160.457 184 160.457C189.523 160.457 194 164.837 194 170.241C194 175.644 189.523 180.025 184 180.025C184 185.428 179.523 189.809 174 189.809C168.477 189.809 164 185.428 164 180.025C164 174.621 168.477 170.241 174 170.241ZM184 178.068C188.418 178.068 192 174.563 192 170.241C192 165.918 188.418 162.414 184 162.414C179.582 162.414 176 165.918 176 170.241C176 174.563 179.582 178.068 184 178.068ZM224 217.204C228.418 217.204 232 213.699 232 209.377C232 205.054 228.418 201.549 224 201.549C219.582 201.549 216 205.054 216 209.377C216 213.699 219.582 217.204 224 217.204Z" fill="black"/>
<path fill-rule="evenodd" clip-rule="evenodd" d="M50 289.605C50 284.201 54.477 279.821 60 279.821C65.523 279.821 70 284.201 70 289.605C70 295.008 65.523 299.389 60 299.389C60 304.792 55.523 309.173 50 309.173C44.477 309.173 40 304.792 40 299.389C40 293.985 44.477 289.605 50 289.605ZM10 250.469C10 245.065 14.477 240.685 20 240.685C25.523 240.685 30 245.065 30 250.469C30 255.873 25.523 260.253 20 260.253C20 265.657 15.523 270.037 10 270.037C4.477 270.037 0 265.657 0 260.253C0 254.849 4.477 250.469 10 250.469ZM20 258.296C24.418 258.296 28 254.792 28 250.469C28 246.146 24.418 242.642 20 242.642C15.582 242.642 12 246.146 12 250.469C12 254.792 15.582 258.296 20 258.296ZM60 297.432C64.418 297.432 68 293.927 68 289.605C68 285.282 64.418 281.778 60 281.778C55.582 281.778 52 285.282 52 289.605C52 293.927 55.582 297.432 60 297.432Z" fill="black"/>
<path fill-rule="evenodd" clip-rule="evenodd" d="M132 289.605C132 284.201 136.477 279.821 142 279.821C147.523 279.821 152 284.201 152 289.605C152 295.008 147.523 299.389 142 299.389C142 304.792 137.523 309.173 132 309.173C126.477 309.173 122 304.792 122 299.389C122 293.985 126.477 289.605 132 289.605ZM92 250.469C92 245.065 96.477 240.685 102 240.685C107.523 240.685 112 245.065 112 250.469C112 255.873 107.523 260.253 102 260.253C102 265.657 97.523 270.037 92 270.037C86.477 270.037 82 265.657 82 260.253C82 254.849 86.477 250.469 92 250.469ZM102 258.296C106.418 258.296 110 254.792 110 250.469C110 246.146 106.418 242.642 102 242.642C97.582 242.642 94 246.146 94 250.469C94 254.792 97.582 258.296 102 258.296ZM142 297.432C146.418 297.432 150 293.927 150 289.605C150 285.282 146.418 281.778 142 281.778C137.582 281.778 134 285.282 134 289.605C134 293.927 137.582 297.432 142 297.432Z" fill="black"/>
<path fill-rule="evenodd" clip-rule="evenodd" d="M214 289.605C214 284.201 218.477 279.821 224 279.821C229.523 279.821 234 284.201 234 289.605C234 295.008 229.523 299.389 224 299.389C224 304.792 219.523 309.173 214 309.173C208.477 309.173 204 304.792 204 299.389C204 293.985 208.477 289.605 214 289.605ZM174 250.469C174 245.065 178.477 240.685 184 240.685C189.523 240.685 194 245.065 194 250.469C194 255.873 189.523 260.253 184 260.253C184 265.657 179.523 270.037 174 270.037C168.477 270.037 164 265.657 164 260.253C164 254.849 168.477 250.469 174 250.469ZM184 258.296C188.418 258.296 192 254.792 192 250.469C192 246.146 188.418 242.642 184 242.642C179.582 242.642 176 246.146 176 250.469C176 254.792 179.582 258.296 184 258.296ZM224 297.432C228.418 297.432 232 293.927 232 289.605C232 285.282 228.418 281.778 224 281.778C219.582 281.778 216 285.282 216 289.605C216 293.927 219.582 297.432 224 297.432Z" fill="black"/>
</g>
<defs>
<clipPath id="clip0_1_617">
<rect width="201" height="317" fill="white"/>
</clipPath>
</defs>
</svg>
