<svg width="63" height="63" viewBox="0 0 63 63" fill="none" xmlns="http://www.w3.org/2000/svg">
<g clip-path="url(#clip0_2804_432)">
<path d="M0 47.517V61.3983H4.27119V59.2627C4.27119 56.904 6.18363 54.9915 8.54237 54.9915H42.7119C45.0706 54.9915 46.983 56.904 46.983 59.2627V61.3983H51.2542V47.517H0Z" fill="#D9C2A0"/>
<path d="M46.9831 18.6865C45.214 18.6865 43.7797 17.2521 43.7797 15.4831L44.8475 13.3475H49.1186L50.1864 15.4831C50.1864 17.2521 48.7521 18.6865 46.9831 18.6865Z" fill="#F7BA61"/>
<path d="M40.5763 15.4831L44.8474 10.1441L45.9152 9.07629H48.0508L49.1186 10.1441L53.3898 15.4831H40.5763Z" fill="#E4E4E2"/>
<path d="M58.7288 62.4661C58.1391 62.4661 57.661 61.988 57.661 61.3983V5.87286C57.661 4.1038 56.2267 2.66947 54.4576 2.66947H51.2542C49.4852 2.66947 48.0508 4.1038 48.0508 5.87286C48.0508 6.46254 47.5727 6.94065 46.983 6.94065C46.3934 6.94065 45.9153 6.46254 45.9153 5.87286C45.9189 2.92547 48.3068 0.537524 51.2542 0.533875H54.4576C57.405 0.537524 59.793 2.92547 59.7966 5.87286V61.3983C59.7966 61.988 59.3185 62.4661 58.7288 62.4661Z" fill="#C3C3C3"/>
<path d="M6.40678 22.9576H44.8475C47.2062 22.9576 49.1186 24.8701 49.1186 27.2288V37.9068H2.13559V27.2288C2.13559 24.8701 4.04803 22.9576 6.40678 22.9576Z" fill="#D9C2A0"/>
<path d="M2.13559 35.7712H49.1186V38.9746H2.13559V35.7712Z" fill="#C1AC8E"/>
<path d="M51.2542 48.5848H0V40.0424C0 38.863 0.95622 37.9068 2.13559 37.9068H49.1186C50.298 37.9068 51.2542 38.863 51.2542 40.0424V48.5848Z" fill="#5D62B5"/>
<path d="M10.678 29.3644H19.2203C21.5791 29.3644 23.4915 31.2768 23.4915 33.6356C23.4915 35.9943 21.5791 37.9068 19.2203 37.9068H10.678C8.31921 37.9068 6.40677 35.9943 6.40677 33.6356C6.40677 31.2768 8.31921 29.3644 10.678 29.3644Z" fill="#50559F"/>
<path d="M32.0339 29.3644H40.5763C42.935 29.3644 44.8474 31.2768 44.8474 33.6356C44.8474 35.9943 42.935 37.9068 40.5763 37.9068H32.0339C29.6751 37.9068 27.7627 35.9943 27.7627 33.6356C27.7627 31.2768 29.6751 29.3644 32.0339 29.3644Z" fill="#50559F"/>
<path d="M44.8475 5.87286H49.1187V10.1441H44.8475V5.87286Z" fill="#DBDBDB"/>
<path d="M61.9322 62.4661H55.5254C54.9358 62.4661 54.4576 61.988 54.4576 61.3983C54.4576 60.8086 54.9358 60.3305 55.5254 60.3305H61.9322C62.5219 60.3305 63 60.8086 63 61.3983C63 61.988 62.5219 62.4661 61.9322 62.4661Z" fill="#B9B9B9"/>
<path d="M19.2203 29.3644H10.678C8.31921 29.3644 6.40677 31.2768 6.40677 33.6356H23.4915C23.4915 31.2768 21.5791 29.3644 19.2203 29.3644Z" fill="#5D62B5"/>
<path d="M40.5763 29.3644H32.0339C29.6751 29.3644 27.7627 31.2768 27.7627 33.6356H44.8474C44.8474 31.2768 42.935 29.3644 40.5763 29.3644Z" fill="#5D62B5"/>
</g>
<defs>
<clipPath id="clip0_2804_432">
<rect width="63" height="63" fill="white"/>
</clipPath>
</defs>
</svg>
