<svg width="63" height="63" viewBox="0 0 63 63" fill="none" xmlns="http://www.w3.org/2000/svg">
<path d="M56.9955 29.5313C57.1535 28.7573 57.1229 27.9567 56.9062 27.197C56.6896 26.4374 56.2933 25.7411 55.7508 25.1669C55.2083 24.5927 54.5356 24.1575 53.7895 23.8981C53.0434 23.6387 52.2458 23.5626 51.4641 23.6764C51.0635 23.207 50.5259 22.8748 49.9268 22.7268C49.3277 22.5788 48.6972 22.6223 48.1241 22.8512C47.4849 21.857 46.6005 21.0441 45.5562 20.4907C44.5118 19.9373 43.3426 19.6621 42.161 19.6914C42.0096 19.2609 41.7604 18.8713 41.433 18.5533C41.1056 18.2353 40.7089 17.9975 40.2741 17.8587C39.8393 17.7198 39.3783 17.6837 38.9272 17.753C38.4761 17.8224 38.0472 17.9955 37.6742 18.2586C36.0216 16.65 33.8064 15.75 31.5002 15.75C29.194 15.75 26.9789 16.65 25.3262 18.2586C24.9533 17.9955 24.5244 17.8224 24.0733 17.753C23.6222 17.6837 23.1611 17.7198 22.7263 17.8587C22.2916 17.9975 21.8949 18.2353 21.5675 18.5533C21.2401 18.8713 20.9909 19.2609 20.8395 19.6914C19.6579 19.6621 18.4888 19.9374 17.4444 20.4908C16.4001 21.0442 15.5158 21.857 14.8766 22.8512C14.3035 22.6223 13.673 22.5788 13.0739 22.7268C12.4748 22.8748 11.9372 23.207 11.5366 23.6764C10.7551 23.5635 9.95785 23.6401 9.21212 23.8998C8.4664 24.1595 7.79404 24.5947 7.25173 25.1686C6.70943 25.7426 6.31307 26.4386 6.09608 27.1978C5.87909 27.9571 5.84782 28.7574 6.00492 29.5313L7.87523 30.5156H56.1096L56.9955 29.5313Z" fill="#A45E14"/>
<path d="M60.0469 49.2188H2.95312V45.2812L4.92188 44.2969H59.0625L60.0469 45.2812V49.2188Z" fill="#50559F"/>
<path d="M60.0469 45.2812H2.95312L5.90625 29.5312H57.0938L60.0469 45.2812Z" fill="#5D62B5"/>
<path d="M39.7811 37.4062C40.0827 37.2027 40.3278 36.9261 40.4936 36.6023C40.6593 36.2784 40.7403 35.9178 40.729 35.5542C40.7177 35.1906 40.6144 34.8357 40.4289 34.5228C40.2433 34.2099 39.9814 33.9491 39.6678 33.7647C39.3541 33.5804 38.9989 33.4785 38.6352 33.4686C38.2715 33.4587 37.9113 33.5412 37.5881 33.7082C37.2649 33.8752 36.9893 34.1215 36.787 34.4238C36.5847 34.7262 36.4623 35.0749 36.4313 35.4374H26.7534C26.7221 35.0752 26.5996 34.7268 26.3973 34.4248C26.195 34.1227 25.9194 33.8768 25.5964 33.71C25.2734 33.5432 24.9134 33.4609 24.5499 33.4709C24.1865 33.4808 23.8315 33.5826 23.5181 33.7668C23.2047 33.951 22.943 34.2116 22.7575 34.5243C22.572 34.837 22.4687 35.1915 22.4573 35.5549C22.4458 35.9183 22.5266 36.2787 22.6921 36.6024C22.8576 36.9261 23.1023 37.2026 23.4036 37.4062C23.102 37.6097 22.8568 37.8862 22.6911 38.2101C22.5253 38.534 22.4443 38.8945 22.4556 39.2582C22.4669 39.6218 22.5702 39.9766 22.7558 40.2896C22.9414 40.6025 23.2032 40.8633 23.5168 41.0476C23.8305 41.232 24.1858 41.3338 24.5494 41.3437C24.9131 41.3536 25.2734 41.2712 25.5966 41.1041C25.9198 40.9371 26.1954 40.6909 26.3977 40.3885C26.6 40.0861 26.7223 39.7374 26.7534 39.3749H36.4313C36.4625 39.7371 36.585 40.0855 36.7874 40.3876C36.9897 40.6897 37.2652 40.9356 37.5882 41.1024C37.9113 41.2692 38.2713 41.3514 38.6347 41.3415C38.9981 41.3316 39.3531 41.2297 39.6665 41.0455C39.98 40.8613 40.2417 40.6007 40.4272 40.2881C40.6127 39.9754 40.7159 39.6208 40.7274 39.2574C40.7388 38.8941 40.658 38.5337 40.4926 38.21C40.3271 37.8863 40.0823 37.6097 39.7811 37.4062V37.4062Z" fill="#29C3BE"/>
<path d="M23.625 23.625C25.256 23.625 26.5781 22.3028 26.5781 20.6719C26.5781 19.0409 25.256 17.7188 23.625 17.7188C21.994 17.7188 20.6719 19.0409 20.6719 20.6719C20.6719 22.3028 21.994 23.625 23.625 23.625Z" fill="#62B58F"/>
<path d="M27.5625 25.5938C29.1935 25.5938 30.5156 24.2716 30.5156 22.6406C30.5156 21.0097 29.1935 19.6875 27.5625 19.6875C25.9315 19.6875 24.6094 21.0097 24.6094 22.6406C24.6094 24.2716 25.9315 25.5938 27.5625 25.5938Z" fill="#F2726F"/>
<path d="M13.7812 28.5469C15.4122 28.5469 16.7344 27.2247 16.7344 25.5938C16.7344 23.9628 15.4122 22.6406 13.7812 22.6406C12.1503 22.6406 10.8281 23.9628 10.8281 25.5938C10.8281 27.2247 12.1503 28.5469 13.7812 28.5469Z" fill="#F2726F"/>
<path d="M49.2188 28.5469C50.8497 28.5469 52.1719 27.2247 52.1719 25.5938C52.1719 23.9628 50.8497 22.6406 49.2188 22.6406C47.5878 22.6406 46.2656 23.9628 46.2656 25.5938C46.2656 27.2247 47.5878 28.5469 49.2188 28.5469Z" fill="#62B58F"/>
<path d="M39.375 23.625C41.006 23.625 42.3281 22.3028 42.3281 20.6719C42.3281 19.0409 41.006 17.7188 39.375 17.7188C37.744 17.7188 36.4219 19.0409 36.4219 20.6719C36.4219 22.3028 37.744 23.625 39.375 23.625Z" fill="#F2726F"/>
</svg>
