<svg width="63" height="63" viewBox="0 0 63 63" fill="none" xmlns="http://www.w3.org/2000/svg">
<path d="M30.5156 30.5156H32.4844V35.4375H30.5156V30.5156Z" fill="#CBCBCB"/>
<path d="M2.95312 18.7031H60.0469V30.5156H2.95312V18.7031Z" fill="#50559F"/>
<path d="M17.7188 18.7031H60.0469V30.5156H17.7188C16.1523 30.5156 14.65 29.8934 13.5424 28.7857C12.4348 27.6781 11.8125 26.1758 11.8125 24.6094C11.8125 23.0429 12.4348 21.5407 13.5424 20.433C14.65 19.3254 16.1523 18.7031 17.7188 18.7031V18.7031Z" fill="#5D62B5"/>
<path d="M41.3438 23.625H43.3125V25.5938H41.3438V23.625Z" fill="#50559F"/>
<path d="M45.2812 23.625H47.25V25.5938H45.2812V23.625Z" fill="#50559F"/>
<path d="M49.2188 23.625H51.1875V25.5938H49.2188V23.625Z" fill="#50559F"/>
<path d="M24.6094 17.7188V31.5H38.3906V17.7188H24.6094ZM34.4531 27.5625H28.5469V21.6562H34.4531V27.5625Z" fill="#E4E4E2"/>
<path d="M38.3905 39.375C38.3905 40.7378 37.9864 42.0701 37.2293 43.2032C36.4721 44.3364 35.3959 45.2196 34.1368 45.7411C32.8777 46.2626 31.4923 46.3991 30.1556 46.1332C28.819 45.8673 27.5912 45.2111 26.6275 44.2474C25.6638 43.2837 25.0076 42.0559 24.7417 40.7193C24.4758 39.3826 24.6123 37.9972 25.1338 36.7381C25.6553 35.479 26.5385 34.4028 27.6717 33.6457C28.8048 32.8885 30.1371 32.4844 31.4999 32.4844C33.3273 32.4846 35.0798 33.2107 36.372 34.5029C37.6642 35.7951 38.3903 37.5476 38.3905 39.375Z" fill="#F3AF3E"/>
<path d="M34.4531 21.6562H35.4375V27.5625H34.4531V21.6562Z" fill="#CBCBCB"/>
<path d="M23.625 18.7031H24.6094V30.5156H23.625V18.7031Z" fill="#50559F"/>
</svg>
