<svg width="63" height="63" viewBox="0 0 63 63" fill="none" xmlns="http://www.w3.org/2000/svg">
<path d="M36.75 39.6917H26.25L27.5704 38.6538C29.3523 37.2525 29.896 34.8182 28.875 32.8124L28.7175 32.4452L30.352 31.9525H32.9219L34.2816 32.446L34.125 32.8124C33.1047 34.8182 33.6487 37.252 35.4305 38.6529L36.75 39.6917Z" fill="#FBB540"/>
<path d="M36.75 43.9916H26.25V39.692L27.125 39.3696H35.875L36.75 39.692V43.9916Z" fill="#FBB540"/>
<path d="M30.352 31.9525L28.7192 32.446L28.8758 32.8124C29.2287 33.511 29.4008 34.2841 29.3772 35.0637C30.781 35.426 32.2637 35.3618 33.6297 34.8796C33.6337 34.1626 33.8033 33.4557 34.1258 32.8124L34.2833 32.4452L32.9227 31.9525H30.352Z" fill="#EA9D2D"/>
<path d="M26.25 41.4117H36.75V44.8513H26.25V41.4117Z" fill="#EA9D2D"/>
<path d="M26.25 39.375H36.75V49.875H26.25V39.375Z" fill="#5D62B5"/>
<path d="M26.25 42H36.75V44.625H26.25V42Z" fill="#50559F"/>
<path d="M26.25 47.25H36.75V49.875H26.25V47.25Z" fill="#50559F"/>
<path d="M18.375 47.25H44.625V57.75H18.375V47.25Z" fill="#5D62B5"/>
<path d="M19.7324 50.0106H21.5427V57.7498H19.7324V50.0106Z" fill="#50559F"/>
<path d="M23.3533 50.0106H25.1636V57.7498H23.3533V50.0106Z" fill="#50559F"/>
<path d="M37.8369 50.0106H39.6473V57.7498H37.8369V50.0106Z" fill="#50559F"/>
<path d="M41.4565 50.0106H43.2669V57.7498H41.4565V50.0106Z" fill="#50559F"/>
<path d="M19.7324 11.3146H44.172V14.7542H19.7324V11.3146Z" fill="#FBB540"/>
<path d="M41.4559 25.0732V21.6335H43.2662C46.7639 21.6298 49.5985 18.937 49.6025 15.6141V14.7542H42.3611V11.3146H51.4128C52.4127 11.3146 53.2231 12.0845 53.2231 13.0344V15.6141C53.2167 20.8356 48.7626 25.0671 43.2662 25.0732H41.4559Z" fill="#FBB540"/>
<path d="M21.5431 25.0732V21.6335H19.7327C16.235 21.6298 13.4005 18.937 13.3965 15.6141V14.7542H20.6379V11.3146H11.5862C10.5863 11.3146 9.77582 12.0845 9.77582 13.0344V15.6141C9.78227 20.8356 14.2364 25.0671 19.7327 25.0732H21.5431Z" fill="#FBB540"/>
<path d="M20.6385 7.875H42.3627V22.4935C42.3627 28.1925 37.4995 32.8125 31.5006 32.8125C25.5017 32.8125 20.6385 28.1925 20.6385 22.4935V7.875Z" fill="#FBB540"/>
<path d="M20.6385 7.875H42.3627V13.0345H20.6385V7.875Z" fill="#FBB540"/>
<path d="M23.625 13.125H39.375V15.75H23.625V13.125Z" fill="#EA9D2D"/>
</svg>
